<?xml version="1.0" encoding="UTF-8" standalone="no"?>
<svg width="720.09" height="364.94" version="1.0" viewBox="0 0 540.07 273.71" xmlns="http://www.w3.org/2000/svg" xmlns:cc="http://creativecommons.org/ns#" xmlns:dc="http://purl.org/dc/elements/1.1/" xmlns:rdf="http://www.w3.org/1999/02/22-rdf-syntax-ns#">
<g transform="matrix(.1 0 0 -.1 -662.93 728.84)">
<path d="m9642 7157c-7-8-13-58-14-118-3-99-2-104 18-107 35-5 44 19 46 129 3 99 2 104-18 107-11 2-26-3-32-11z"/>
<path d="m9370 7135c-13-16-9-35 34-180 14-43 43-58 65-32 9 12 6 36-15 113-14 55-31 102-37 106-18 12-33 9-47-7z"/>
<path d="m9864 7006c-24-51-44-98-44-104s10-16 21-23c30-15 43 1 90 106 41 92 40 115-3 115-15 0-30-23-64-94z"/>
<path d="m9127 7023c-15-15-4-42 49-120 57-84 79-98 104-68 16 19 9 33-60 128-46 62-74 80-93 60z"/>
<path d="m10072 6877c-72-72-89-108-56-121 9-3 18-6 21-6 15 0 153 146 153 161s-26 39-42 39c-2 0-36-33-76-73z"/>
<path d="m8937 6833c-4-3-7-17-7-29 0-17 20-36 81-79 84-57 104-63 122-33 15 22-1 39-90 99-70 47-92 56-106 42z"/>
<path d="m10202 6678c-74-37-83-44-80-67 2-15 10-27 20-29 9-2 58 16 108 39 83 39 91 45 88 68-5 39-41 36-136-11z"/>
<path d="m9207 6643c-9-16-17-118-10-128 5-6 21-16 36-23 32-14 42-33 33-67-4-16-16-27-34-31-15-4-33-11-39-17-16-12-17-123-2-133 7-4 48-10 93-13l81-6 3-157 3-158h-46c-26 0-67-9-93-19-26-11-72-27-102-36-62-19-103-52-131-107-15-29-19-58-19-129 0-83 2-95 25-126 19-24 37-35 64-39 31-5 43-13 59-43 28-48 68-91 122-130l45-32 5-281c4-244 7-282 21-291 9-6 24-7 33-4 14 6 16 39 16 316 0 293-1 310-19 316-35 11-112 72-142 114-39 52-33 71 20 71s108 46 117 98c10 53 20 69 51 77 74 18 46 75-37 75-66 0-80-16-80-89 0-43-5-62-18-74-47-43-82-6-82 86 0 126 51 177 178 177 54 0 71 3 76 16 3 9 6 94 6 190v174h28c15 0 38-7 50-16 21-15 22-21 22-175 0-158 7-199 34-199 32 0 34 6 92 340 20 115 29 149 45 163 27 21 31 21 60-2l24-19-28-169c-16-92-35-199-42-238-7-38-21-112-30-163-19-101-22-105-95-116-47-7-98-34-142-74-31-29-35-53-13-72 12-10 19-9 37 4 94 68 99 70 176 76l76 5 21 111c12 61 29 123 38 138 19 28 82 64 93 53 11-10-46-314-69-376-28-73-99-144-183-182-59-27-65-32-62-57 2-21 8-27 28-28 40-1 69-14 74-32 3-9 16-109 31-222 38-306 36-294 66-298 17-2 29 3 32 13 4 8-10 145-29 303l-36 288 54 55c90 90 104 133 168 506 17 96 13 103-55 103-31 0-65-5-77-11-11-6-22-9-24-6-2 2 3 42 11 88 9 46 18 105 22 132l6 47h87c100 0 100 0 100 86 0 53-1 56-34 69-59 25-56 89 5 102 16 3 32 9 34 13 11 17 15 116 6 129-10 15-11 15-514 46-284 17-314 18-320 8zm368-83c66-5 182-13 258-16 105-5 137-10 137-20 0-8-6-14-14-14-27 0-76-72-76-110 0-40 29-93 59-110 31-16 25-30-13-30-52 0-66 9-66 42 0 102-126 154-201 82-16-15-33-42-39-60s-16-34-23-36c-18-6-309 12-330 20-16 7-13 11 20 32 26 17 42 38 52 67 13 37 13 45-4 82-10 22-28 48-41 56-57 37-29 39 281 15zm-477-842c6-7 12-44 15-83 2-38 7-80 12-92 6-20 4-23-22-23-44 0-53 16-53 98 0 94 19 134 48 100z"/>
<path d="m8825 6588c-8-5-15-18-15-29 0-23 30-37 138-65 68-17 73-17 90-1 22 22 7 48-34 59-113 33-165 43-179 36z"/>
<path d="m10262 6451c-74-7-95-19-89-51 3-18 108-25 183-13 46 8 49 10 49 38 0 27-3 30-35 31-19 1-68-2-108-5z"/>
<path d="m8883 6330c-84-9-93-14-93-45 0-32 16-35 122-24 101 10 131 26 112 57-13 20-43 23-141 12z"/>
<path d="m10156 6214c-13-33 11-49 108-73 102-25 126-23 126 7 0 28-16 37-101 61-90 25-125 26-133 5z"/>
<path d="m8942 6090c-78-37-83-42-80-67 4-41 30-39 128 10 73 36 85 46 85 67 0 38-37 35-133-10z"/>
<path d="m10070 6025c-19-23-8-36 83-99 90-61 117-66 117-22 0 18-18 37-77 80-82 59-102 66-123 41z"/>
<path d="m6938 5929c-83-19-153-88-178-174-7-24-10-85-8-150 2-93 7-118 27-158 40-77 121-127 206-127 50 0 59-10 53-57l-4-28-13 27c-19 37-66 51-158 46-64-3-78-7-94-27-40-49-16-185 44-250 12-13 45-34 72-47 42-20 66-24 146-24 83 0 102 3 147 26 29 14 64 41 79 60l26 34 33-38c19-22 56-49 85-62 46-19 66-22 150-18 88 3 101 6 149 36 28 18 53 32 56 32 2 0 4-16 4-35v-36l836 6 59 30c74 38 127 105 150 190 14 50 16 100 13 290-3 210-5 234-24 276-31 66-87 124-152 156-48 24-70 28-171 31-147 5-180-3-203-48-16-31-18-70-18-347v-313h-220v333c0 401 10 372-135 372-77 0-96-3-114-19-12-11-21-27-21-38 0-22-13-23-31-2-7 8-31 25-53 37-34 18-57 22-141 22-92 0-104-2-152-29-29-16-62-43-74-61l-22-31-47 47c-71 71-184 96-302 68zm712-64c36-19 88-79 97-113 10-35 10-569 0-604-10-38-65-98-104-114-18-8-67-14-110-14-95 0-148 22-189 76l-29 37-3 291c-2 160 0 305 3 323 9 50 72 113 130 129s163 11 205-11zm-513 4c34-12 80-55 98-90 8-14 15-48 17-75l3-49h-160l-5 30c-5 29-7 30-60 30h-55v-170l72-6c94-9 140-33 178-94 29-47 30-52 30-169 0-132-7-157-62-208-40-38-74-48-166-48-145 1-208 49-215 167l-4 63h161l3-32c3-33 3-33 58-33h55l3 93c1 50 1 92 0 93-2 0-40 4-86 8-70 7-88 13-120 38-60 48-71 81-72 211 0 145 21 192 105 236 35 19 178 22 222 5zm833-339v-350h280v-160h-440v860h160zm633 335c53-22 95-62 125-119l27-51v-245c0-266-3-280-61-349-52-62-93-75-246-79l-138-4v862h129c90 0 139-4 164-15zm-1541-262c8-10 6-13-11-13-18 0-21 6-20 38 0 34 1 35 10 13 5-14 15-31 21-38zm188-48c0-39-5-42-30-20-9 8-34 24-56 35l-39 19 63 1h62z"/>
<path d="m7477 5714c-4-4-7-123-7-265v-259l24-6c13-3 38-4 57-2l34 3v530l-50 3c-28 2-54 0-58-4zm60-371c-1-60-3-11-3 107s2 167 3 108c2-60 2-156 0-215z"/>
<path d="m8470 5450v-270h26c29 0 64 16 81 39 9 11 12 78 13 234v218l-26 24c-18 16-39 25-60 25h-34zm67-102c-1-57-3-11-3 102s2 159 3 103c2-57 2-149 0-205z"/>
<path d="m10472 5926c-59-19-107-58-139-114l-28-47-3-295c-4-348-1-362 72-435 60-60 103-75 208-75 99 0 161 22 212 76l42 43 28-36c16-20 53-46 83-60 49-23 65-25 152-21 84 3 103 7 144 31 60 35 102 93 116 158 6 27 11 153 11 279v230h100v-659l26-20c22-18 41-21 113-21 140 0 131-26 131 370v330h50c96 0 120 28 120 140 0 80-12 113-47 129-17 8-135 11-374 10-321-1-351-3-372-19-22-18-22-22-27-352l-6-333-2 326c-2 389 3 371-111 377-107 6-139-2-158-44-17-34-17-34-37-15-12 10-37 27-56 37-46 23-188 29-248 10zm228-61c36-19 88-79 97-113 5-15 8-151 8-302s-3-287-8-302c-10-38-65-98-104-114-18-8-67-14-110-14-95 0-148 22-189 76l-29 37-3 291c-2 160 0 305 3 323 9 50 72 113 130 129s163 11 205-11zm304 19c14-5 16-46 16-350v-344l24-6c13-3 38-4 57-2l34 3 3 339c1 230 6 344 13 353 16 18 133 18 148-1 9-11 11-107 9-368-3-386-3-381-65-440-40-38-74-48-161-48-94 0-147 22-188 76l-29 37-3 370c-2 293 0 372 10 379 15 9 109 11 132 2zm836-84v-80h-160v-700h-160v700h-160v160h480z"/>
<path d="m10527 5714c-4-4-7-123-7-265v-259l24-6c13-3 38-4 57-2l34 3v530l-50 3c-28 2-54 0-58-4zm60-371c-1-60-3-11-3 107s2 167 3 108c2-60 2-156 0-215z"/>
</g>
</svg>